<svg width="210" height="105" viewBox="0 0 210 105" fill="none" xmlns="http://www.w3.org/2000/svg">
<path d="M34.7492 104.784C49.7952 104.784 61.9924 101.795 61.9924 98.1064C61.9924 94.4182 49.7952 91.4283 34.7492 91.4283C19.7033 91.4283 7.5061 94.4182 7.5061 98.1064C7.5061 101.795 19.7033 104.784 34.7492 104.784Z" fill="#F1F2F2"/>
<path d="M64.6724 52.8511L39.581 95.3068C38.0049 97.9713 34.5708 98.8548 31.9056 97.2795C31.07 96.7855 30.397 96.0858 29.9329 95.3068L4.84068 52.8511C-4.92513 36.3295 0.551453 15.0192 17.0747 5.25573C33.5979 -4.51166 54.9066 0.967279 64.6724 17.4905C71.3363 28.7656 70.8707 42.3079 64.6724 52.8511Z" fill="white"/>
<path d="M34.7263 0.415405V4.60569H34.7271C45.4981 4.60569 55.5906 10.3603 61.0648 19.6235C66.7181 29.1883 66.7157 41.1058 61.0648 50.7201L35.9741 93.1742C35.7166 93.61 35.2595 93.8707 34.7522 93.8707C34.5002 93.8707 34.2599 93.804 34.0368 93.6721C33.8374 93.5543 33.6591 93.3736 33.5405 93.1758L8.44829 50.7193C4.29491 43.6925 3.12641 35.469 5.15873 27.5635C7.19105 19.6581 12.18 13.0177 19.2083 8.8643C23.92 6.07967 29.2859 4.60726 34.7255 4.60648L34.7263 0.415405ZM34.724 0.415405C28.7142 0.415405 22.6235 1.97577 17.0747 5.25591C0.551453 15.0202 -4.92513 36.3297 4.84068 52.8513L29.9329 95.307C30.3963 96.086 31.0692 96.7857 31.9056 97.2797C32.8008 97.8089 33.7832 98.0602 34.7522 98.0602C36.6683 98.0602 38.535 97.0763 39.581 95.307L64.6724 52.8513C70.8707 42.3073 71.3363 28.765 64.6724 17.4907C58.1867 6.51708 46.6101 0.41462 34.724 0.415405Z" fill="#0FFF99"/>
<path d="M100.426 40.7484C99.0222 40.7484 97.7202 40.4939 96.5203 39.9843C95.3196 39.4754 94.3686 38.6485 93.6673 37.5051C92.9653 36.3617 92.6143 34.8509 92.6143 32.9717V23.4956C92.6143 21.6164 92.9653 20.1055 93.6673 18.9622C94.3694 17.8188 95.3196 16.9919 96.5203 16.483C97.7202 15.9741 99.0332 15.7181 100.46 15.7181C102.045 15.7181 103.443 15.9851 104.654 16.5168C105.865 17.0492 106.816 17.7905 107.507 18.7415C108.197 19.6925 108.543 20.8359 108.543 22.1716C108.543 23.0551 108.362 23.6378 108 23.9212C107.638 24.2047 107.083 24.3461 106.336 24.3461C105.725 24.3461 105.209 24.2385 104.79 24.0233C104.371 23.8089 104.151 23.4516 104.128 22.9538C104.128 22.6813 104.089 22.3593 104.01 21.9863C103.93 21.6117 103.777 21.245 103.552 20.8822C103.325 20.5202 102.979 20.2147 102.516 19.965C102.052 19.7168 101.412 19.5912 100.597 19.5912C99.4423 19.5912 98.5534 19.9139 97.9314 20.5586C97.3087 21.2041 96.9977 22.1834 96.9977 23.4964V32.9724C96.9977 34.3082 97.3142 35.293 97.9487 35.9275C98.5824 36.562 99.4879 36.8785 100.666 36.8785C101.435 36.8785 102.046 36.7544 102.499 36.5047C102.952 36.2557 103.286 35.944 103.501 35.571C103.716 35.1964 103.863 34.8061 103.943 34.3993C104.022 33.991 104.084 33.607 104.13 33.2442C104.175 32.7235 104.401 32.3607 104.809 32.1573C105.217 31.9531 105.714 31.8511 106.303 31.8511C107.072 31.8511 107.639 31.9987 108.001 32.2924C108.363 32.5861 108.545 33.1641 108.545 34.0247C108.545 35.3825 108.199 36.5714 107.509 37.5907C106.818 38.6092 105.861 39.3906 104.639 39.934C103.414 40.4774 102.01 40.7484 100.426 40.7484Z" fill="#0033FF"/>
<path d="M119.276 40.7484C117.782 40.7484 116.434 40.4939 115.235 39.9843C114.035 39.4746 113.084 38.6485 112.382 37.5051C111.679 36.3617 111.328 34.8509 111.328 32.9717V23.4956C111.328 21.6164 111.679 20.1055 112.382 18.9622C113.084 17.8188 114.029 16.9919 115.217 16.483C116.405 15.9741 117.758 15.7181 119.276 15.7181C120.77 15.7181 122.123 15.9734 123.335 16.483C124.546 16.9919 125.502 17.8188 126.204 18.9622C126.906 20.1055 127.257 21.6172 127.257 23.4956V32.9717C127.257 34.8516 126.906 36.3617 126.204 37.5051C125.501 38.6485 124.546 39.4754 123.335 39.9843C122.123 40.4939 120.77 40.7484 119.276 40.7484ZM119.276 36.8777C120.385 36.8777 121.257 36.5612 121.891 35.9267C122.525 35.2922 122.842 34.3074 122.842 32.9717V23.4956C122.842 22.1606 122.525 21.1751 121.891 20.5406C121.257 19.9069 120.385 19.5896 119.276 19.5896C118.166 19.5896 117.294 19.9069 116.661 20.5406C116.026 21.1751 115.71 22.1598 115.71 23.4956V32.9717C115.71 34.3074 116.026 35.2922 116.661 35.9267C117.294 36.5604 118.166 36.8777 119.276 36.8777Z" fill="#0033FF"/>
<path d="M144.68 40.7146C144.386 40.7146 144.097 40.6243 143.814 40.4429C143.531 40.2623 143.309 40.0016 143.151 39.6616L138.328 30.2876H135.475V39.1519C135.475 39.605 135.248 39.9506 134.796 40.1877C134.343 40.4256 133.833 40.5442 133.268 40.5442C132.725 40.5442 132.22 40.4256 131.756 40.1877C131.292 39.9498 131.06 39.605 131.06 39.1519V17.0767C131.06 16.7147 131.19 16.3975 131.451 16.1258C131.711 15.854 132.056 15.7174 132.486 15.7174H139.211C140.704 15.7174 142.057 15.9326 143.269 16.3629C144.48 16.7933 145.448 17.5236 146.172 18.5539C146.897 19.5842 147.26 21.0047 147.26 22.8164C147.26 24.1294 147.068 25.2445 146.683 26.1617C146.297 27.0789 145.771 27.8147 145.103 28.3699C144.435 28.9251 143.671 29.3374 142.811 29.6091L147.294 37.8625C147.339 37.9528 147.373 38.0494 147.396 38.1507C147.418 38.2528 147.43 38.3376 147.43 38.4059C147.43 38.7679 147.294 39.1307 147.022 39.4927C146.75 39.8547 146.405 40.15 145.986 40.3754C145.568 40.6016 145.133 40.7146 144.68 40.7146ZM135.476 26.8245H139.212C140.321 26.8245 141.204 26.552 141.861 26.0094C142.518 25.4659 142.846 24.5377 142.846 23.224C142.846 21.8662 142.518 20.9199 141.861 20.3883C141.204 19.8567 140.321 19.5897 139.212 19.5897H135.476V26.8245Z" fill="#0033FF"/>
<path d="M158.062 40.7484C156.567 40.7484 155.22 40.4939 154.02 39.9843C152.82 39.4754 151.869 38.6485 151.167 37.5051C150.465 36.3617 150.114 34.8509 150.114 32.9717V23.4956C150.114 21.6164 150.465 20.1055 151.167 18.9622C151.869 17.8188 152.814 16.9919 154.002 16.483C155.191 15.9741 156.544 15.7181 158.062 15.7181C159.555 15.7181 160.908 15.9734 162.12 16.483C163.331 16.9919 164.288 17.8188 164.989 18.9622C165.691 20.1055 166.042 21.6172 166.042 23.4956V32.9717C166.042 34.8516 165.691 36.3617 164.989 37.5051C164.287 38.6485 163.331 39.4754 162.12 39.9843C160.908 40.4939 159.555 40.7484 158.062 40.7484ZM158.062 36.8777C159.17 36.8777 160.042 36.5612 160.677 35.9267C161.31 35.2922 161.628 34.3074 161.628 32.9717V23.4956C161.628 22.1606 161.31 21.1751 160.677 20.5406C160.042 19.9069 159.17 19.5896 158.062 19.5896C156.952 19.5896 156.08 19.9069 155.447 20.5406C154.812 21.1751 154.496 22.1598 154.496 23.4956V32.9717C154.496 34.3074 154.812 35.2922 155.447 35.9267C156.079 36.5604 156.952 36.8777 158.062 36.8777Z" fill="#0033FF"/>
<path d="M172.054 40.5458C171.51 40.5458 171.006 40.4272 170.542 40.1893C170.077 39.9513 169.846 39.6066 169.846 39.1535V17.1105C169.846 16.6354 170.077 16.2844 170.542 16.0574C171.006 15.8321 171.51 15.7174 172.054 15.7174C172.596 15.7174 173.044 15.7747 173.395 15.8878C173.745 16.0017 174.074 16.2223 174.38 16.5506C174.686 16.8788 175.009 17.383 175.348 18.0615L181.903 30.7305V17.0767C181.903 16.6016 182.135 16.2561 182.599 16.0409C183.064 15.8266 183.567 15.7182 184.111 15.7182C184.676 15.7182 185.186 15.8266 185.639 16.0409C186.092 16.2561 186.319 16.6016 186.319 17.0767V39.1527C186.319 39.6058 186.092 39.9513 185.639 40.1885C185.186 40.4264 184.676 40.545 184.111 40.545C183.59 40.545 183.109 40.4429 182.668 40.2388C182.226 40.0346 181.869 39.6726 181.598 39.1519L174.261 25.4981V39.1519C174.261 39.605 174.035 39.9506 173.583 40.1877C173.129 40.4264 172.619 40.5458 172.054 40.5458Z" fill="#0033FF"/>
<path d="M191.48 40.5458C191.072 40.5458 190.653 40.4665 190.223 40.3079C189.793 40.15 189.43 39.9341 189.136 39.6624C188.842 39.3907 188.695 39.0742 188.695 38.7114C188.695 38.6439 188.707 38.5308 188.729 38.3714L195.284 17.0084C195.442 16.5106 195.799 16.1376 196.354 15.8878C196.908 15.6389 197.503 15.514 198.137 15.514C198.794 15.514 199.394 15.6381 199.938 15.8878C200.48 16.1368 200.832 16.5106 200.99 17.0084L207.546 38.3714C207.591 38.53 207.614 38.6439 207.614 38.7114C207.614 39.0514 207.461 39.3624 207.155 39.6451C206.849 39.9286 206.482 40.15 206.051 40.3079C205.621 40.4665 205.202 40.5458 204.795 40.5458C204.432 40.5458 204.121 40.4838 203.861 40.3589C203.6 40.2348 203.424 40.0024 203.334 39.6624L202.043 35.1454H194.232L192.975 39.6624C192.884 40.0024 192.703 40.2348 192.432 40.3589C192.16 40.483 191.842 40.5458 191.48 40.5458ZM195.182 31.6807H201.091L198.136 21.2537L195.182 31.6807Z" fill="#0033FF"/>
<path d="M100.896 81.101C100.305 81.101 99.7675 80.9683 99.2806 80.7029C98.7937 80.4374 98.5503 80.0542 98.5503 79.5524V53.0482H91.6924C91.2196 53.0482 90.8513 52.8268 90.5859 52.3847C90.3205 51.9418 90.1877 51.4408 90.1877 50.8801C90.1877 50.3492 90.3055 49.8623 90.5419 49.4202C90.7775 48.9781 91.1615 48.7559 91.6924 48.7559H110.054C110.615 48.7559 111.013 48.9773 111.249 49.4202C111.485 49.8623 111.602 50.3343 111.602 50.8361C111.602 51.4266 111.477 51.9418 111.226 52.3855C110.975 52.8268 110.585 53.049 110.053 53.049H103.24V79.5532C103.24 80.055 102.997 80.4382 102.51 80.7037C102.024 80.9683 101.486 81.101 100.896 81.101Z" fill="#0FFF99"/>
<path d="M132.444 81.2338C132.061 81.2338 131.714 81.1011 131.404 80.8356C131.095 80.5694 130.836 80.2459 130.631 79.8627L124.126 67.2078H119.702V79.5533C119.702 80.0551 119.458 80.4383 118.972 80.7037C118.485 80.9691 117.946 81.1019 117.356 81.1019C116.766 81.1019 116.227 80.9691 115.741 80.7037C115.254 80.4383 115.011 80.0551 115.011 79.5533V50.2613C115.011 49.849 115.15 49.4941 115.431 49.1988C115.71 48.9043 116.101 48.7567 116.603 48.7567H125.01C126.868 48.7567 128.564 49.03 130.098 49.5758C131.631 50.1215 132.856 51.0513 133.77 52.3635C134.684 53.6765 135.142 55.4827 135.142 57.7828C135.142 59.5528 134.869 61.0284 134.323 62.2079C133.777 63.3889 133.04 64.325 132.112 65.0176C131.182 65.711 130.127 66.2199 128.948 66.5434L135.143 78.1806C135.202 78.2686 135.246 78.3793 135.276 78.5128C135.305 78.6455 135.32 78.7562 135.32 78.8442C135.32 79.2282 135.173 79.6043 134.878 79.9734C134.583 80.3425 134.221 80.644 133.794 80.8796C133.365 81.116 132.915 81.2338 132.444 81.2338ZM119.701 63.4471H125.01C126.663 63.4471 127.982 63.0481 128.971 62.2526C129.959 61.4564 130.453 60.1002 130.453 58.1817C130.453 56.2648 129.959 54.9071 128.971 54.1108C127.982 53.3145 126.663 52.9164 125.01 52.9164H119.701V63.4471Z" fill="#0FFF99"/>
<path d="M140.054 81.101C139.641 81.101 139.198 81.0131 138.727 80.8356C138.254 80.6581 137.871 80.4296 137.577 80.1492C137.281 79.8705 137.135 79.5375 137.135 79.1535C137.135 79.0655 137.149 78.9328 137.179 78.7554L145.983 50.0838C146.161 49.5529 146.536 49.1548 147.112 48.8894C147.687 48.6239 148.299 48.4912 148.948 48.4912C149.626 48.4912 150.254 48.6239 150.829 48.8894C151.404 49.1556 151.781 49.5537 151.958 50.0838L160.718 78.7561C160.777 78.9336 160.807 79.0663 160.807 79.1543C160.807 79.5084 160.652 79.8336 160.342 80.128C160.032 80.4225 159.649 80.6589 159.192 80.8356C158.734 81.0131 158.285 81.101 157.842 81.101C157.459 81.101 157.126 81.028 156.846 80.8796C156.566 80.7319 156.366 80.4814 156.248 80.128L154.434 73.8442H143.46L141.691 80.128C141.602 80.4814 141.403 80.7327 141.093 80.8796C140.785 81.028 140.437 81.101 140.054 81.101ZM144.522 70.0834H153.373L148.948 54.907L144.522 70.0834Z" fill="#0FFF99"/>
<path d="M173.77 81.3664C172 81.3664 170.37 81.0421 168.881 80.3935C167.391 79.7448 166.203 78.6973 165.318 77.2523C164.433 75.8066 163.991 73.889 163.991 71.5001V58.6246C163.991 56.2357 164.433 54.3188 165.318 52.8723C166.203 51.4274 167.398 50.3798 168.903 49.7312C170.406 49.0826 172.044 48.7574 173.814 48.7574C175.849 48.7574 177.611 49.1045 179.101 49.7972C180.59 50.4906 181.756 51.4345 182.596 52.6289C183.437 53.8233 183.857 55.2031 183.857 56.7666C183.857 57.7694 183.665 58.4259 183.282 58.7353C182.899 59.0455 182.309 59.2002 181.512 59.2002C180.804 59.2002 180.244 59.0753 179.831 58.824C179.418 58.5743 179.195 58.1832 179.166 57.6524C179.137 57.2692 179.063 56.8121 178.946 56.2805C178.828 55.7489 178.598 55.2259 178.26 54.7091C177.92 54.194 177.411 53.766 176.733 53.4268C176.055 53.0875 175.125 52.9179 173.946 52.9179C172.234 52.9179 170.921 53.3828 170.007 54.3118C169.093 55.2408 168.636 56.6786 168.636 58.6254V71.5009C168.636 73.4476 169.1 74.8855 170.029 75.8145C170.958 76.7435 172.308 77.2084 174.078 77.2084C175.199 77.2084 176.09 77.0387 176.755 76.6995C177.418 76.3603 177.912 75.9323 178.237 75.4163C178.562 74.9004 178.782 74.3538 178.901 73.779C179.019 73.2042 179.107 72.6812 179.166 72.2084C179.195 71.6485 179.425 71.2496 179.853 71.014C180.28 70.7777 180.818 70.6599 181.468 70.6599C182.293 70.6599 182.898 70.8224 183.282 71.1467C183.665 71.4718 183.857 72.1197 183.857 73.0935C183.857 74.686 183.437 76.1097 182.596 77.3638C181.756 78.618 180.584 79.5988 179.079 80.3055C177.574 81.0131 175.804 81.3664 173.77 81.3664Z" fill="#0FFF99"/>
<path d="M190.583 81.1011C189.992 81.1011 189.454 80.9684 188.967 80.7029C188.481 80.4375 188.237 80.0543 188.237 79.5525V50.2613C188.237 49.7305 188.481 49.3472 188.967 49.1109C189.454 48.8745 189.992 48.7567 190.583 48.7567C191.172 48.7567 191.711 48.8745 192.198 49.1109C192.685 49.3472 192.928 49.7305 192.928 50.2613V63.7125L203.724 49.4211C204.049 48.979 204.492 48.7567 205.052 48.7567C205.435 48.7567 205.841 48.8745 206.269 49.1109C206.696 49.3472 207.049 49.6496 207.331 50.0179C207.611 50.387 207.751 50.778 207.751 51.1903C207.751 51.3081 207.722 51.4557 207.663 51.6324C207.604 51.8091 207.515 51.9725 207.397 52.1193L198.902 62.7379L208.991 78.0919C209.168 78.3573 209.256 78.6376 209.256 78.9321C209.256 79.3153 209.123 79.6836 208.858 80.0378C208.592 80.392 208.245 80.6794 207.818 80.9016C207.39 81.1223 206.955 81.233 206.513 81.233C206.188 81.233 205.879 81.167 205.583 81.0335C205.289 80.9016 205.037 80.6731 204.832 80.348L195.805 66.6762L192.929 70.3042V79.5517C192.929 80.0535 192.686 80.4367 192.199 80.7022C191.712 80.9676 191.172 81.1011 190.583 81.1011Z" fill="#0FFF99"/>
<path d="M34.7493 15.2776C36.3811 15.2776 37.6635 16.5984 37.6635 18.1918C37.6635 19.7953 36.3505 21.1052 34.7493 21.1052C33.1457 21.1052 31.8335 19.7953 31.8335 18.1918C31.8335 16.6086 33.097 15.2776 34.7493 15.2776Z" fill="#0033FF"/>
<path d="M14.1284 35.8961C14.1284 34.2642 15.4516 32.9811 17.0442 32.9811C18.6477 32.9811 19.9592 34.2933 19.9592 35.8961C19.9592 37.4988 18.647 38.8118 17.0442 38.8118C15.4595 38.8118 14.1284 37.5475 14.1284 35.8961Z" fill="#0033FF"/>
<path d="M34.7477 56.5168C33.1151 56.5168 31.8335 55.1944 31.8335 53.6011C31.8335 51.9967 33.1457 50.6853 34.7477 50.6853C36.3512 50.6853 37.6635 51.9967 37.6635 53.6011C37.6642 55.1842 36.3999 56.5168 34.7477 56.5168Z" fill="#0033FF"/>
<path d="M55.3693 35.8961C55.3693 37.5295 54.0477 38.8118 52.4536 38.8118C50.8508 38.8118 49.5386 37.4988 49.5386 35.8961C49.5386 34.2933 50.8508 32.9811 52.4536 32.9811C54.0375 32.9811 55.3693 34.2438 55.3693 35.8961Z" fill="#0033FF"/>
<path d="M20.1681 21.315C21.3225 20.1606 23.1639 20.1881 24.2908 21.315C25.4248 22.4481 25.4248 24.3053 24.2908 25.4369C23.1553 26.5717 21.302 26.5717 20.1681 25.4369C19.0475 24.3187 18.9996 22.4843 20.1681 21.315Z" fill="#0033FF"/>
<path d="M20.1681 50.4756C19.0129 49.3221 19.0412 47.4806 20.1681 46.356C21.302 45.2205 23.1561 45.2205 24.29 46.356C25.4248 47.4876 25.4248 49.3425 24.29 50.4756C23.171 51.597 21.335 51.6457 20.1681 50.4756Z" fill="#0033FF"/>
<path d="M49.3289 50.4756C48.1753 51.6324 46.333 51.6049 45.2069 50.4756C44.073 49.3425 44.073 47.4876 45.2069 46.356C46.3385 45.2205 48.1949 45.2205 49.3289 46.356C50.4503 47.4743 50.4974 49.3087 49.3289 50.4756Z" fill="#0033FF"/>
<path d="M49.3289 21.3149C50.4825 22.4708 50.4558 24.3108 49.3289 25.4369C48.195 26.5716 46.3386 26.5708 45.207 25.4369C44.0738 24.3053 44.073 22.4489 45.207 21.3149C46.3276 20.1959 48.1612 20.1472 49.3289 21.3149Z" fill="#0033FF"/>
<path d="M34.7493 47.4657C28.2706 47.4657 23.1804 42.2223 23.1804 35.8961C23.1804 29.5337 28.3853 24.3296 34.7493 24.3296C41.1116 24.3296 46.3173 29.5337 46.3173 35.8961C46.3181 42.1823 41.3056 47.4657 34.7493 47.4657Z" fill="#0033FF"/>
<path d="M35.6885 18.1918H33.8101V53.6019H35.6885V18.1918Z" fill="#0033FF"/>
<path d="M52.4535 34.9553H17.0442V36.8345H52.4535V34.9553Z" fill="#0033FF"/>
<path d="M47.9338 24.0428L46.6052 22.7139L21.5643 47.7477L22.8929 49.0767L47.9338 24.0428Z" fill="#0033FF"/>
<path d="M47.9313 47.7497L22.8939 22.7123L21.5657 24.0405L46.6031 49.0779L47.9313 47.7497Z" fill="#0033FF"/>
</svg>
